<?xml version="1.0" encoding="UTF-8"?>
<svg xmlns="http://www.w3.org/2000/svg" version="1.1" xmlns:xlink="http://www.w3.org/1999/xlink" viewBox="0 0 1080 1080">
  <defs>
    <style>
      .cls-1 {
        fill: #003b8b;
      }

      .cls-2 {
        fill: #38b5fe;
      }

      .cls-3 {
        fill: #1c76be;
      }

      .cls-4 {
        fill: url(#linear-gradient);
      }
    </style>
    <linearGradient id="linear-gradient" x1="540" y1="1941.02" x2="540" y2="862.98" gradientTransform="translate(0 -862)" gradientUnits="userSpaceOnUse">
      <stop offset="0" stop-color="#0e64c0"/>
      <stop offset="1" stop-color="#2998e8"/>
    </linearGradient>
  </defs>
  <!-- Generator: Adobe Illustrator 28.8.0, SVG Export Plug-In . SVG Version: 1.2.0 Build 7)  -->
  <g>
    <g id="Layer_1">
      <g id="Layer_1-2" data-name="Layer_1">
        <g id="Layer_1-2">
          <g>
            <path class="cls-2" d="M541.95,641.02c-26.5-29.55-52.06-60.54-81.3-87.44l-4.19-6.24-250.15-278,167.8-1.05c167.05,185.71,334.74,370.93,501.34,557.09l-165.7,1.05c-56.85-60.94-112.15-123.33-167.8-185.31h0v-.1Z"/>
            <polygon class="cls-2" points="707.7 268.24 875.49 269.29 655.54 511.9 571.14 419.22 707.7 268.24"/>
            <path class="cls-3" d="M460.64,553.53l47.96,122.88c-45.12,49.66-90.19,99.47-134.46,149.93l-167.8-1.05,250.15-278,4.19,6.24h-.05Z"/>
            <path class="cls-1" d="M541.95,641.02c-11.68,11.18-22.51,23.46-33.34,35.39l-47.96-122.88c29.3,26.9,54.8,57.95,81.3,87.44h0v.05Z"/>
          </g>
          <path class="cls-4" d="M540,40.6c67.43,0,132.81,13.23,194.35,39.23,59.44,25.15,112.9,61.19,158.76,107.06s81.9,99.27,107.06,158.76c26.05,61.54,39.23,126.92,39.23,194.35s-13.23,132.81-39.23,194.35c-25.15,59.44-61.19,112.9-107.06,158.76-45.87,45.87-99.27,81.9-158.76,107.06-61.54,26.05-126.92,39.23-194.35,39.23s-132.81-13.23-194.35-39.23c-59.44-25.15-112.9-61.19-158.76-107.06-45.87-45.87-81.9-99.27-107.06-158.76-26.05-61.54-39.23-126.92-39.23-194.35s13.23-132.81,39.23-194.35c25.15-59.44,61.19-112.9,107.06-158.76,45.87-45.87,99.27-81.9,158.76-107.06,61.54-26.05,126.92-39.23,194.35-39.23M540,.98C242.29.98.98,242.29.98,540s241.31,539.02,539.02,539.02,539.02-241.31,539.02-539.02S837.66.98,540,.98h0Z"/>
        </g>
      </g>
    </g>
  </g>
</svg>
